<?xml version="1.0" encoding="utf-8"?>
<!-- Generator: Adobe Illustrator 16.0.0, SVG Export Plug-In . SVG Version: 6.00 Build 0)  -->
<!DOCTYPE svg PUBLIC "-//W3C//DTD SVG 1.1//EN" "http://www.w3.org/Graphics/SVG/1.1/DTD/svg11.dtd">
<svg version="1.1" id="Layer_1" xmlns="http://www.w3.org/2000/svg" xmlns:xlink="http://www.w3.org/1999/xlink" x="0px" y="0px"
	 width="540px" height="369px" viewBox="0 0 540 369" enable-background="new 0 0 540 369" xml:space="preserve">
<g>
	<path fill="#FEF2EE" d="M447.03,306.459c38.996-37.229,48.313-113.235,12.189-166.082
		c-30.105-44.047-85.564-89.356-155.443-102.564C233.891,24.606,172.67,24.62,146.192,42.07
		c-21.667,14.278-11.596,34.166-4.8,51.066c9.07,22.56,10.407,40.471-26.909,73.245c-42.597,37.408-54.127,51.455-56.262,87.627
		c-1.737,29.422,22.827,68.996,55.057,74.666c44.872,7.896,61.527-12.955,105.426-27.016c35.217-11.275,59.644-6.005,91.572,15.609
		C342.203,338.879,389.795,361.092,447.03,306.459z"/>
	<g>
		<g id="dots-gray_11_">
			<g id="Dots_11_">
				<path id="Combined-Shape-Copy-5_11_" fill="#B655FF" d="M79.561,249.346c0.599,0,1.082,0.482,1.082,1.082
					c0,0.596-0.483,1.076-1.082,1.076c-0.596,0-1.079-0.48-1.079-1.076C78.482,249.828,78.965,249.346,79.561,249.346z M97.5,242
					c0.596,0,1.077,0.483,1.077,1.079c0,0.6-0.481,1.082-1.077,1.082c-0.601,0-1.082-0.482-1.082-1.082
					C96.418,242.485,96.902,242,97.5,242z"/>
			</g>
		</g>
		<g id="dots-gray_10_">
			<g id="Dots_10_">
				<path id="Combined-Shape-Copy-5_10_" fill="#B655FF" d="M79.561,229.307c0.599,0,1.082,0.482,1.082,1.082
					c0,0.596-0.483,1.076-1.082,1.076c-0.596,0-1.079-0.48-1.079-1.076C78.482,229.789,78.965,229.307,79.561,229.307z
					 M97.5,221.961c0.596,0,1.077,0.483,1.077,1.079c0,0.6-0.481,1.082-1.077,1.082c-0.601,0-1.082-0.482-1.082-1.082
					C96.418,222.446,96.902,221.961,97.5,221.961z"/>
			</g>
		</g>
		<g id="dots-gray_9_">
			<g id="Dots_9_">
				<path id="Combined-Shape-Copy-5_9_" fill="#B655FF" d="M79.561,209.27c0.6,0,1.082,0.48,1.082,1.08
					c0,0.596-0.482,1.08-1.082,1.08c-0.596,0-1.078-0.484-1.078-1.08C78.483,209.75,78.965,209.27,79.561,209.27z M97.5,201.923
					c0.596,0,1.078,0.482,1.078,1.079c0,0.599-0.482,1.081-1.078,1.081c-0.6,0-1.082-0.482-1.082-1.081
					C96.418,202.407,96.903,201.923,97.5,201.923z"/>
			</g>
		</g>
		<g id="dots-gray_8_">
			<g id="Dots_8_">
				<path id="Combined-Shape-Copy-5_8_" fill="#B655FF" d="M79.561,189.23c0.6,0,1.082,0.48,1.082,1.08
					c0,0.596-0.482,1.08-1.082,1.08c-0.596,0-1.078-0.484-1.078-1.08C78.483,189.711,78.965,189.23,79.561,189.23z M97.5,181.884
					c0.596,0,1.078,0.482,1.078,1.079c0,0.599-0.482,1.081-1.078,1.081c-0.6,0-1.082-0.482-1.082-1.081
					C96.418,182.368,96.903,181.884,97.5,181.884z"/>
			</g>
		</g>
		<g id="dots-gray_7_">
			<g id="Dots_7_">
				<path id="Combined-Shape-Copy-5_7_" fill="#B655FF" d="M79.561,169.191c0.6,0,1.082,0.48,1.082,1.08
					c0,0.598-0.482,1.08-1.082,1.08c-0.596,0-1.078-0.484-1.078-1.08C78.483,169.674,78.965,169.191,79.561,169.191z M97.5,161.846
					c0.596,0,1.078,0.481,1.078,1.078c0,0.599-0.482,1.08-1.078,1.08c-0.6,0-1.082-0.481-1.082-1.08
					C96.418,162.329,96.903,161.846,97.5,161.846z"/>
			</g>
		</g>
		<g id="dots-gray_1_">
			<g id="Dots_1_">
				<path id="Combined-Shape-Copy-5_1_" fill="#B655FF" d="M79.561,149.152c0.6,0,1.082,0.482,1.082,1.08s-0.482,1.08-1.082,1.08
					c-0.596,0-1.078-0.484-1.078-1.08C78.483,149.635,78.965,149.152,79.561,149.152z M97.5,141.807c0.596,0,1.078,0.481,1.078,1.08
					c0,0.597-0.482,1.078-1.078,1.078c-0.6,0-1.082-0.481-1.082-1.078C96.418,142.289,96.903,141.807,97.5,141.807z"/>
			</g>
		</g>
	</g>
</g>
<g>
	<g>
		<path fill="#F09A5A" d="M409.377,306.169l8.314-11.781l-6.55-1.621l-5.005,9.242c-1.821,3.348-7.748,9.926-7.748,9.926
			l3.942,0.053L409.377,306.169z"/>
		<path fill="#183660" d="M437.875,160.495c-0.559-1.154-1.18-3.199-1.487-6.848c0.048,0.36,0.677,4.963,2.447,7.569
			c7.27,4.772,21.205,20.709,20.927,23.732c0,0,1.541-1.442,3.773-3.499l0.516-3.102c0.271,0.559,0.302,1.619,0.282,2.367
			c4.172-3.822,10.157-9.214,13.354-11.65c-0.396-1.303-1.465-3.576-1.501-3.659c0.937,0.257,2.041,1.97,2.582,2.882
			c0.092-0.064,0.179-0.122,0.264-0.171c0,0-0.952-7.522-11.797-13.141c-5.682-2.946-9.581-4.165-9.354-7.903
			c0.228-3.738-1.488-19.823-12.411-15.613c0,0-1.753-0.779-2.539-0.662c0,0,0.64,0.121,0.965,0.458
			c-1.263-0.075-3.076,0.018-4.587,0.878C435.303,134.41,431.72,154.827,437.875,160.495z"/>
		<path fill="#E59A64" d="M439.841,157.322c-0.006-2.397-0.19-4.938-0.19-4.938l8.078-1.6l0.481-0.096
			c-0.023,6.275,0.282,7.736,1.347,7.947c0.034,0.008-1.605,3.262-4.114,3.943c-2.669,0.73-6.216-1.11-6.18-1.127
			C439.724,161.237,439.846,159.329,439.841,157.322z"/>
		<path fill="#E47970" d="M439.411,134.549c5.003-4.023,8.987,0.218,8.987,0.218C442.323,134.045,439.411,134.549,439.411,134.549z"
			/>
		<path fill="#D58D5C" d="M447.729,150.784c-0.978,2.284-3.368,6.408-7.888,6.538c-0.006-2.397-0.19-4.938-0.19-4.938
			L447.729,150.784z"/>
		<path fill="#183660" d="M436.679,149.07l-0.774-2.497c-2.982-7.391-0.315-10.084,1.533-11.332c2.321-1.57,4.794-1.814,4.794-1.814
			c8.514-1.219,9.675,7.25,9.27,9.535c-0.569,3.201-2.938,6.943-2.938,6.943L436.679,149.07z"/>
		<path fill="#78A0D4" d="M430.384,206.315l22.923-0.184c-0.705,6.449-1.473,12.482-4.116,21.678
			c-0.138,0.479-0.283,0.967-0.428,1.459c-0.463,1.545-0.975,3.178-1.548,4.912c-3.589,10.885-10.401,22.916-13.689,32.498
			c-0.157,0.453-0.302,0.904-0.443,1.346c-6.004,19.109-16.709,31.027-16.709,31.027l-4.635-0.143l-4.281-0.131
			C423.198,250.376,430.382,206.315,430.384,206.315z"/>
		<path fill="#E8F0FA" d="M439.847,157.844c-0.136,1.228,0.717,2.353,3.343,2.41c2.284,0.051,4.849-0.99,5.709-2.064
			c3.741,1.405,4.753,52.323,4.597,52.368c-13.194,4.154-24.293-1.486-24.293-1.486s1.506-5.295,1.81-17.629
			C431.447,173.784,437.046,159.401,439.847,157.844z"/>
		<path fill="#E59A64" d="M434.709,141.014c0.541-2.223,1.87-4.766,8.7-4.367c6.828,0.393,5.444,4.855,5.433,11.52
			c-0.007,6.66-10.7,6.482-10.7,6.482C435.361,154.432,434.167,143.237,434.709,141.014z"/>
		<path fill="#183660" d="M434.756,145.628c1.017,0.116,1.255-3.372,1.79-5.071c0.4-1.277,1.743-2.586,2.379-3.148
			c0.933,2.103,3.499,7.135,7.035,8.044c4.494,1.157,6.442-0.048,6.442-0.048s-0.567-4.094-4.161-7.518c0,0-7.305-4.992-9.616-1.541
			c-0.699-0.601-1.948-1.036-3.599,0.965C432.548,140.315,434.755,145.628,434.756,145.628z"/>
		<path fill="#E59A64" d="M393.992,169.438c-1.839,0.255-3.451-0.227-4.938-2.35c-1.483-2.125-1.892-1.309-2.835-2.889
			c-1.281-2.145,0.722-2.942,1.408-3.158c5.973-0.768,7.48,4.666,7.48,4.666L393.992,169.438z"/>
		<path fill="#F09A5A" d="M449.795,313.851c3.214-0.059,2.496-3.324,2.496-3.324c-0.784-2.246-0.63-4.363-0.573-4.91l2.792-11.754
			h-7.459l0.159,12.281c0,0-0.692,3.465-1.056,5.465C445.79,313.61,446.579,313.913,449.795,313.851z"/>
		<path fill="#D54B42" d="M446.375,310.444c-0.593,1.426-0.563,5.166-0.563,5.166s1.263,0,3.478,0c2.334,0,3.277,0,3.277,0
			c0.361-1.639-0.275-5.084-0.275-5.084C448.655,313.864,446.375,310.444,446.375,310.444z"/>
		<path fill="#D54B42" d="M394.538,315.608c0,0,6.979,0,7.601,0c1.099,0,1.92-1.639,3.103-4.004
			c0.483-0.969,1.569-1.502,2.684-1.793l0.017,5.799h1.691l1.566-6.143c1.049-1.928,0.235-3.643-0.505-5.162
			c-0.858-0.004-3.318,0.545-7.698,5.48c-1.44,1.619-3.027,2.197-4.605,2.148c-0.022,0.016-0.042,0.027-0.064,0.033
			C394.688,313.606,394.538,315.608,394.538,315.608z"/>
		<path fill="#F37169" d="M393.992,169.438c0,0,4.137,6.577,6.487,8.303c7.497,5.49,12.981,7.885,12.981,7.885
			s7.337-1.675,13.534-5.448c-0.451,2.332-0.648,4.593-0.431,6.601c1.092,10.191-2.911,39.484-2.911,39.484s1.092,0.914,5.274,1.822
			c4.188,0.912,3.823-1.273,3.823-1.273s0.544-47.495,0.727-50.588c0.182-3.094,6.369-18.379,6.369-18.379l-0.057,0.025l0.012-0.025
			c-10.173,1.182-20.037,10.821-23.842,15.27c-1.06,1.236-2.814,1.616-4.288,0.925c-2.316-1.088-5.606-2.63-7.036-3.274
			c-2.509-1.133-9.527-5.057-9.527-5.057L393.992,169.438z"/>
		<path fill="#6891C8" d="M430.361,260.94c3.549-17.467,15.011-36.029,15.011-36.029l3.819,2.898
			c-0.138,0.479-0.283,0.967-0.428,1.459c-0.463,1.545-0.975,3.178-1.548,4.912c-3.589,10.885-10.401,22.916-13.689,32.498
			c-0.157,0.453-0.302,0.904-0.443,1.346c-6.004,19.109-16.709,31.027-16.709,31.027l-4.635-0.143
			C414.934,294.372,427.279,276.114,430.361,260.94z"/>
		<path fill="#78A0D4" d="M442.427,219.989l22.401,2.18c0.004,0.611,0.001,1.238-0.014,1.885c-0.012,0.643-0.037,1.307-0.067,1.986
			c-0.203,4.322-0.765,9.438-1.577,15.545c-0.804,6.07-1.854,13.121-3.034,21.346c-1.437,10.023-3.412,21.652-6.188,35.713
			c0,0-1.131,0.033-3.399,0.033h-4.105c-1.106-8.086-1.537-27.615-1.471-36.107C445.01,257.63,442.706,234.87,442.427,219.989z"/>
		<path fill="#6891C8" d="M459.772,246.737c2.002-14.014-3.243-15.863-3.243-15.863l8.219-4.834
			c-0.203,4.322-0.765,9.438-1.577,15.545c-0.804,6.07-1.854,13.121-3.034,21.346c-1.437,10.023-3.412,21.652-6.188,35.713
			c0,0-1.131,0.033-3.399,0.033C453.333,296.69,457.772,260.747,459.772,246.737z"/>
		<path fill="#F37169" d="M441.848,177.131c0.365-3.82,7.05-18.941,7.05-18.941l4.597,8.751c0.144,1.599,0.536,3.829,1.112,6.501
			c2.05,9.533,6.397,24.649,9.91,36.374c2.899,9.684,5.232,17.053,5.232,17.053s-7.764,3.279-13.221,4.006
			c-5.46,0.729-7.04-4.973-7.04-4.973S441.486,180.953,441.848,177.131z"/>
		<path fill="#D54B42" d="M454.607,173.44c2.05,9.535,6.397,24.651,9.91,36.375c-0.034-0.016-0.071-0.033-0.106-0.051
			c-12.979-6.428-14.433-18.438-14.677-24.625C449.599,181.732,452.224,177.004,454.607,173.44z"/>
		<path fill="#F09A5A" d="M429.994,181.398c2.627,0.346,3.637,1.74,3.962,3.624c0.174,1.016,0.697,2.021,1.144,2.732
			c2.709,0.145,9.288,0.502,14.627,0.844v6.848c-4.322-0.531-9.647-1.621-15.785-3.721c-0.469-0.082-1.053-0.373-1.781-0.973
			c-3.769-3.082-5.908-8.257-5.915-8.999C426.238,181.014,427.369,181.051,429.994,181.398z"/>
		<polygon fill="#183660" points="424.133,184.636 423.908,183.939 423.044,184.61 		"/>
		<path fill="#E47970" d="M455.555,186.476c0.728,2.305-6.248,1.939-6.248,1.939c-2.366,1.271,0.272,7.736,0.272,7.736
			c0.105,0.018,0.205,0.035,0.308,0.055c8.271,1.547,12.946,0.217,12.946,0.217c3.399-5.822,2.549-25.598-0.119-31.543
			c-2.668-5.943-13.816-6.689-13.816-6.689S454.828,184.171,455.555,186.476z"/>
	</g>
	<g>
		<path fill="#D1E5FD" d="M237.615,71.603h146.366c1.82,0,3.296,1.476,3.296,3.295v179.83c0,1.82-1.476,3.297-3.296,3.297H237.615
			c-1.819,0-3.295-1.477-3.295-3.297V74.897C234.32,73.078,235.795,71.603,237.615,71.603"/>
		
			<line fill="none" stroke="#2084FB" stroke-width="2" stroke-linecap="round" stroke-linejoin="round" stroke-miterlimit="10" x1="234.32" y1="214.413" x2="234.32" y2="147.354"/>
		<path fill="none" stroke="#2084FB" stroke-width="2" stroke-linecap="round" stroke-linejoin="round" stroke-miterlimit="10" d="
			M356.341,258.024H237.615c-1.819,0-3.295-1.477-3.295-3.297V224.3"/>
		<path fill="none" stroke="#2084FB" stroke-width="2" stroke-linecap="round" stroke-linejoin="round" stroke-miterlimit="10" d="
			M387.277,197.196v57.531c0,1.82-1.476,3.297-3.296,3.297h-21.789"/>
		<path fill="none" stroke="#2084FB" stroke-width="2" stroke-linecap="round" stroke-linejoin="round" stroke-miterlimit="10" d="
			M234.32,138.787V74.897c0-1.819,1.476-3.295,3.295-3.295h146.366c1.82,0,3.296,1.476,3.296,3.295v116.531"/>
		<path fill="#FFFFFF" d="M240.572,251.442V78.183c0-0.182,0.148-0.329,0.33-0.329h139.793c0.184,0,0.331,0.147,0.331,0.329v173.26
			c0,0.182-0.147,0.33-0.331,0.33H240.902C240.72,251.772,240.572,251.624,240.572,251.442"/>
		<path fill="#2084FB" d="M280.719,62.849h59.497c0.911,0,1.647,0.738,1.647,1.648v15.152c0,0.91-0.736,1.648-1.647,1.648h-59.497
			c-0.91,0-1.647-0.738-1.647-1.648V64.497C279.072,63.587,279.809,62.849,280.719,62.849"/>
		<path fill="#2084FB" d="M322.336,65.991c0,6.555-5.313,11.867-11.868,11.867s-11.867-5.313-11.867-11.867
			s5.313-11.867,11.867-11.867S322.336,59.437,322.336,65.991"/>
		<path fill="#13B85B" d="M272.404,110.236c0,4.954-4.017,8.973-8.973,8.973c-4.955,0-8.973-4.019-8.973-8.973
			c0-4.956,4.018-8.974,8.973-8.974C268.387,101.262,272.404,105.28,272.404,110.236"/>
		
			<polyline fill="none" stroke="#FFFFFF" stroke-width="6" stroke-linecap="round" stroke-linejoin="round" stroke-miterlimit="10" points="
			260.409,109.958 262.814,112.362 266.452,108.108 		"/>
		<path fill="#D1E5FD" d="M320.102,107.691h-36.694c-1.214,0-2.198-0.983-2.198-2.196c0-1.214,0.984-2.197,2.198-2.197h36.694
			c1.215,0,2.197,0.983,2.197,2.197C322.299,106.708,321.317,107.691,320.102,107.691"/>
		<path fill="#D1E5FD" d="M365.1,116.823h-81.692c-1.215,0-2.198-0.983-2.198-2.197s0.983-2.197,2.198-2.197H365.1
			c1.214,0,2.198,0.983,2.198,2.197S366.314,116.823,365.1,116.823"/>
		<path fill="#13B85B" d="M272.404,145.821c0,4.957-4.017,8.975-8.973,8.975c-4.955,0-8.973-4.018-8.973-8.975
			c0-4.954,4.018-8.971,8.973-8.971C268.387,136.85,272.404,140.867,272.404,145.821"/>
		
			<polyline fill="none" stroke="#FFFFFF" stroke-width="6" stroke-linecap="round" stroke-linejoin="round" stroke-miterlimit="10" points="
			260.409,145.544 262.814,147.95 266.452,143.694 		"/>
		<path fill="#D1E5FD" d="M330.43,143.278h-47.022c-1.214,0-2.198-0.983-2.198-2.197s0.984-2.197,2.198-2.197h47.022
			c1.214,0,2.197,0.983,2.197,2.197S331.644,143.278,330.43,143.278"/>
		<path fill="#D1E5FD" d="M365.1,152.41h-81.692c-1.215,0-2.198-0.984-2.198-2.198c0-1.213,0.983-2.197,2.198-2.197H365.1
			c1.214,0,2.198,0.984,2.198,2.197C367.298,151.425,366.314,152.41,365.1,152.41"/>
		<path fill="#13B85B" d="M272.404,181.406c0,4.96-4.017,8.974-8.973,8.974c-4.955,0-8.973-4.014-8.973-8.974
			c0-4.953,4.018-8.97,8.973-8.97C268.387,172.436,272.404,176.454,272.404,181.406"/>
		
			<polyline fill="none" stroke="#FFFFFF" stroke-width="6" stroke-linecap="round" stroke-linejoin="round" stroke-miterlimit="10" points="
			260.409,181.129 262.814,183.535 266.452,179.281 		"/>
		<path fill="#D1E5FD" d="M309.462,178.863h-26.055c-1.214,0-2.198-0.984-2.198-2.195c0-1.215,0.984-2.199,2.198-2.199h26.055
			c1.215,0,2.198,0.984,2.198,2.199C311.66,177.879,310.677,178.863,309.462,178.863"/>
		<path fill="#D1E5FD" d="M365.1,187.997h-81.692c-1.215,0-2.198-0.984-2.198-2.197s0.983-2.198,2.198-2.198H365.1
			c1.214,0,2.198,0.985,2.198,2.198S366.314,187.997,365.1,187.997"/>
		<path fill="#13B85B" d="M272.404,216.997c0,4.955-4.017,8.971-8.973,8.971c-4.955,0-8.973-4.016-8.973-8.971
			c0-4.957,4.018-8.973,8.973-8.973C268.387,208.024,272.404,212.04,272.404,216.997"/>
		
			<polyline fill="none" stroke="#FFFFFF" stroke-width="6" stroke-linecap="round" stroke-linejoin="round" stroke-miterlimit="10" points="
			260.409,216.718 262.814,219.124 266.452,214.87 		"/>
		<path fill="#D1E5FD" d="M332.256,214.452h-48.849c-1.214,0-2.198-0.982-2.198-2.197s0.984-2.197,2.198-2.197h48.849
			c1.215,0,2.196,0.982,2.196,2.197S333.471,214.452,332.256,214.452"/>
		<path fill="#D1E5FD" d="M365.1,223.583h-81.692c-1.215,0-2.198-0.984-2.198-2.197s0.983-2.197,2.198-2.197H365.1
			c1.214,0,2.198,0.984,2.198,2.197S366.314,223.583,365.1,223.583"/>
		<path fill="none" stroke="#FFFFFF" stroke-width="2" stroke-linecap="round" stroke-linejoin="round" stroke-miterlimit="10" d="
			M407.475,195.144c0-1.461,0.365-2.838,1.012-4.043"/>
		<path fill="#2084FB" d="M402.521,224.396h11.073v-23.393c0-3.057-2.479-5.537-5.536-5.537c-3.06,0-5.537,2.48-5.537,5.537V224.396
			z"/>
		<path fill="none" stroke="#2084FB" stroke-width="2" stroke-miterlimit="10" d="M402.521,224.396h11.073v-23.393
			c0-3.057-2.479-5.537-5.536-5.537c-3.06,0-5.537,2.48-5.537,5.537V224.396z"/>
		<path fill="#FFFFFF" d="M402.521,230.985v-29.982c0-3.057,2.478-5.537,5.537-5.537h-41.063c-3.046,0-5.518,2.471-5.518,5.518
			v86.748h36.478c2.54,0,4.598-2.059,4.598-4.598v-49.121v-3.027H402.521z"/>
		<path fill="none" stroke="#2084FB" stroke-width="2" stroke-linecap="round" stroke-linejoin="round" stroke-miterlimit="10" d="
			M402.521,230.985v-29.982c0-3.057,2.478-5.537,5.537-5.537h-41.063c-3.046,0-5.518,2.471-5.518,5.518v86.748h36.478
			c2.54,0,4.598-2.059,4.598-4.598v-49.121v-3.027H402.521z"/>
		<path fill="#2084FB" d="M393.971,283.431v-5.135h-50.118v3.908c0,3.047,2.471,5.52,5.517,5.52h48.894
			C395.893,287.724,393.971,285.8,393.971,283.431"/>
		<path fill="none" stroke="#2084FB" stroke-width="2" stroke-miterlimit="10" d="M393.971,283.431v-5.135h-50.118v3.908
			c0,3.047,2.471,5.52,5.517,5.52h48.894C395.893,287.724,393.971,285.8,393.971,283.431z"/>
		
			<line fill="none" stroke="#2084FB" stroke-width="2" stroke-linecap="round" stroke-linejoin="round" stroke-miterlimit="10" x1="366.249" y1="206.835" x2="380.365" y2="206.835"/>
		
			<line fill="none" stroke="#2084FB" stroke-width="2" stroke-linecap="round" stroke-linejoin="round" stroke-miterlimit="10" x1="366.249" y1="211.722" x2="396.126" y2="211.722"/>
		
			<line fill="none" stroke="#2084FB" stroke-width="2" stroke-linecap="round" stroke-linejoin="round" stroke-miterlimit="10" x1="366.249" y1="216.61" x2="388.546" y2="216.61"/>
		
			<line fill="none" stroke="#2084FB" stroke-width="2" stroke-linecap="round" stroke-linejoin="round" stroke-miterlimit="10" x1="366.249" y1="221.499" x2="396.126" y2="221.499"/>
		
			<line fill="none" stroke="#2084FB" stroke-width="2" stroke-linecap="round" stroke-linejoin="round" stroke-miterlimit="10" x1="366.249" y1="226.386" x2="382.615" y2="226.386"/>
		
			<line fill="none" stroke="#2084FB" stroke-width="2" stroke-linecap="round" stroke-linejoin="round" stroke-miterlimit="10" x1="366.249" y1="250.825" x2="380.365" y2="250.825"/>
		
			<line fill="none" stroke="#2084FB" stroke-width="2" stroke-linecap="round" stroke-linejoin="round" stroke-miterlimit="10" x1="366.249" y1="255.714" x2="396.126" y2="255.714"/>
		
			<line fill="none" stroke="#2084FB" stroke-width="2" stroke-linecap="round" stroke-linejoin="round" stroke-miterlimit="10" x1="366.249" y1="260.601" x2="388.546" y2="260.601"/>
		
			<line fill="none" stroke="#2084FB" stroke-width="2" stroke-linecap="round" stroke-linejoin="round" stroke-miterlimit="10" x1="366.249" y1="265.489" x2="396.126" y2="265.489"/>
		
			<line fill="none" stroke="#2084FB" stroke-width="2" stroke-linecap="round" stroke-linejoin="round" stroke-miterlimit="10" x1="366.249" y1="270.378" x2="382.615" y2="270.378"/>
		
			<line fill="none" stroke="#2084FB" stroke-width="2" stroke-linecap="round" stroke-linejoin="round" stroke-miterlimit="10" x1="384.702" y1="234.556" x2="389.534" y2="234.556"/>
		
			<line fill="none" stroke="#2084FB" stroke-width="2" stroke-linecap="round" stroke-linejoin="round" stroke-miterlimit="10" x1="384.702" y1="238.577" x2="396.126" y2="238.577"/>
		
			<line fill="none" stroke="#2084FB" stroke-width="2" stroke-linecap="round" stroke-linejoin="round" stroke-miterlimit="10" x1="384.702" y1="242.601" x2="392.83" y2="242.601"/>
		<path fill="#FE835B" d="M381.206,243.692l-4.948-8.57c-0.101-0.176-0.354-0.176-0.455,0l-3.7,6.41l-2.169-3.754
			c-0.101-0.174-0.353-0.174-0.454,0l-3.415,5.914c-0.102,0.176,0.026,0.393,0.228,0.393h4.791h2.039h7.857
			C381.181,244.085,381.307,243.868,381.206,243.692"/>
		<path fill="#FE835B" d="M371.299,235.501c0.574,0,1.038-0.467,1.038-1.039s-0.464-1.037-1.038-1.037
			c-0.571,0-1.037,0.465-1.037,1.037S370.728,235.501,371.299,235.501"/>
		<path fill="#2084FB" d="M194.558,144.377h42.744l13.01,13.008v59.879c0,1.025-0.832,1.859-1.859,1.859h-53.895
			c-1.025,0-1.857-0.834-1.857-1.859v-71.029C192.7,145.209,193.532,144.377,194.558,144.377"/>
		<path fill="none" stroke="#2084FB" stroke-width="2" stroke-miterlimit="10" d="M194.558,144.377h42.744l13.01,13.008v59.879
			c0,1.025-0.832,1.859-1.859,1.859h-53.895c-1.025,0-1.857-0.834-1.857-1.859v-71.029
			C192.7,145.209,193.532,144.377,194.558,144.377z"/>
		<path fill="#FFFFFF" d="M194.558,144.377h42.744v13.008h13.01v59.879c0,1.025-0.832,1.859-1.859,1.859h-53.895
			c-1.025,0-1.857-0.834-1.857-1.859v-71.029C192.7,145.209,193.532,144.377,194.558,144.377"/>
		<path fill="none" stroke="#2084FB" stroke-width="2" stroke-linecap="round" stroke-linejoin="round" stroke-miterlimit="10" d="
			M194.558,144.377h42.744v13.008h13.01v59.879c0,1.025-0.832,1.859-1.859,1.859h-53.895c-1.025,0-1.857-0.834-1.857-1.859v-71.029
			C192.7,145.209,193.532,144.377,194.558,144.377z"/>
		<path fill="#D1E5FD" d="M220.908,164.928c-10.269,0-18.591,8.322-18.591,18.593c0,10.269,8.322,18.591,18.591,18.591
			s18.591-8.322,18.591-18.591v-0.053C239.474,173.223,231.161,164.928,220.908,164.928 M231.384,183.521
			c0,5.786-4.689,10.476-10.476,10.476s-10.476-4.689-10.476-10.476c0-5.789,4.689-10.478,10.476-10.478
			c5.769,0,10.446,4.66,10.476,10.425V183.521z"/>
		<path fill="#FE835B" d="M239.499,183.469h-8.115c-0.031-5.765-4.707-10.425-10.476-10.425v-8.115
			C231.159,164.928,239.474,173.225,239.499,183.469"/>
	</g>
	<g>
		<path fill="#FFFFFF" d="M450.831,111.12h-36.414c-1.818,0-3.294-1.475-3.294-3.296V72.781c0-1.819,1.476-3.294,3.294-3.294h36.414
			c1.818,0,3.296,1.475,3.296,3.294v35.042C454.127,109.645,452.65,111.12,450.831,111.12"/>
		<path fill="none" stroke="#2084FB" stroke-width="2" stroke-linecap="round" stroke-linejoin="round" stroke-miterlimit="10" d="
			M450.831,111.12h-36.414c-1.818,0-3.294-1.475-3.294-3.296V72.781c0-1.819,1.476-3.294,3.294-3.294h36.414
			c1.818,0,3.296,1.475,3.296,3.294v35.042C454.127,109.645,452.65,111.12,450.831,111.12z"/>
		<path fill="#D1E5FD" d="M445.678,95.952h-25.336c-0.42,0-0.759-0.338-0.759-0.759V78.26c0-0.42,0.339-0.759,0.759-0.759h25.336
			c0.418,0,0.757,0.339,0.757,0.759v16.933C446.435,95.614,446.096,95.952,445.678,95.952"/>
		<path fill="#2084FB" d="M433.01,88.231l-13.427-9.972c0-0.42,0.339-0.759,0.759-0.759h25.336c0.418,0,0.757,0.339,0.757,0.759
			L433.01,88.231z"/>
		<line fill="#FFFFFF" x1="419.444" y1="103.756" x2="446.382" y2="103.756"/>
		
			<line fill="none" stroke="#2084FB" stroke-width="2" stroke-linecap="round" stroke-linejoin="round" stroke-miterlimit="10" x1="419.444" y1="103.756" x2="446.382" y2="103.756"/>
		<line fill="#FFFFFF" x1="419.444" y1="100.461" x2="433.201" y2="100.461"/>
		
			<line fill="none" stroke="#2084FB" stroke-width="2" stroke-linecap="round" stroke-linejoin="round" stroke-miterlimit="10" x1="419.444" y1="100.461" x2="433.201" y2="100.461"/>
	</g>
	<g>
		<g>
			<path fill="#F99746" d="M124.968,264.392v8.045c0,1.664,1.359,3.021,3.021,3.021h47.559c1.66,0,3.02-1.357,3.02-3.021v-8.045
				c0-1.66-1.359-3.018-3.02-3.018h-47.559C126.327,261.374,124.968,262.731,124.968,264.392z"/>
			<path fill="#ED7D2B" d="M124.968,270.974v1.463c0,1.664,1.359,3.021,3.021,3.021h47.559c1.66,0,3.02-1.357,3.02-3.021v-1.584
				h-52.731C125.534,270.853,125.242,270.896,124.968,270.974z"/>
			<g>
				<path fill="#E8C6A7" d="M167.118,275.458l2.144,8.121c0,0,0,0,0.002,0.002l8.927,33.797h0.938l-5.158-28.039
					c-0.006-0.027-0.013-0.055-0.018-0.088l-2.553-13.865L167.118,275.458z"/>
			</g>
			<path fill="#C69D7B" d="M167.118,275.458l2.144,8.121c0,0,0,0,0.002,0.002c0.124,0.061,4.026,2.078,4.688,5.67l-2.553-13.865
				L167.118,275.458z"/>
			<g>
				<path fill="#E8C6A7" d="M124.968,317.378h0.939l7.271-27.531c0-0.002,0-0.002,0-0.006l1.654-6.26
					c0.001-0.002,0.001-0.002,0.001-0.002l2.144-8.121l-4.282-0.072l-1.459,7.93l-1.093,5.936c-0.006,0.033-0.012,0.061-0.018,0.088
					L124.968,317.378z"/>
			</g>
			<path fill="#E8C6A7" d="M139.466,286.091c0.004,0.004,0.009,0,0.014-0.01C139.5,286.046,139.495,286.056,139.466,286.091z"/>
			<path fill="#C69D7B" d="M131.237,283.315c0.79,1.148,1.879,3.309,1.942,6.525l1.654-6.26c0.001-0.002,0.001-0.002,0.001-0.002
				l2.144-8.121l-4.282-0.072L131.237,283.315z"/>
		</g>
		<g id="man_11_">
			<path fill="#599DAD" d="M185.093,102.987c-1.107-1.152-1.855-0.719-1.855-0.719s-13.053,10.021-14.299,10.75
				s-18.221,1.221-18.221,1.221s-6.801-0.076-8.451,3.414c-1.433,3.033-0.42,5.645,1.059,7.564c1.764,2.287,4.763,3.238,7.535,2.43
				c6.223-1.816,18.6-5.523,20.918-6.939c5.154-3.154,14.463-15.744,14.463-15.744S185.96,103.891,185.093,102.987z"/>
			<g>
				<path fill="#FE835B" d="M170.368,95.45l3.096,6.292l0.074,0.15c0.384,0.765,1.27,1.12,2.067,0.829l5.505-2
					c0.09-0.033,0.182-0.059,0.273-0.074c0.639-0.109,1.305,0.157,1.66,0.715c2.15,3.245,4.916,6.025,8.152,8.185
					c0.135,0.091,0.25,0.199,0.35,0.315c0.373,0.449,0.489,1.079,0.29,1.644l-1.676,4.591c-0.216,0.605-0.059,1.278,0.364,1.727
					c0.134,0.133,0.29,0.258,0.474,0.35l6.425,3.162c0.79,0.391,1.76,0.107,2.217-0.655l3.354-5.571
					c0.334-0.547,0.947-0.854,1.587-0.789c0.921,0.084,1.843,0.135,2.781,0.135c1.759,0,3.478-0.158,5.147-0.457h0.008
					c0.697-0.125,1.386,0.182,1.752,0.787l3.412,5.654l0.173,0.283c0.434,0.73,1.37,1.012,2.142,0.631l6.436-3.164
					c0.78-0.39,1.154-1.303,0.855-2.124l-2.227-6.128c-0.248-0.681-0.031-1.444,0.531-1.885c2.359-1.9,4.418-4.15,6.086-6.682
					c0.432-0.641,1.238-0.906,1.969-0.641l5.445,1.977c0.83,0.299,1.734-0.075,2.117-0.855l3.18-6.45
					c0.372-0.765,0.099-1.687-0.623-2.117l-6.543-3.952c-0.555-0.331-0.871-0.954-0.82-1.602c0.066-0.797,0.1-1.603,0.1-2.416
					c0-1.535-0.117-3.039-0.341-4.5c-0.108-0.664,0.19-1.328,0.771-1.669l6.8-4.092c0.746-0.456,1.021-1.396,0.639-2.175
					l-3.17-6.459c-0.342-0.682-1.105-1.047-1.836-0.896c-0.074,0.016-0.156,0.033-0.232,0.066l-6.8,2.465
					c-0.63,0.232-1.335,0.075-1.792-0.415c-0.041-0.042-0.084-0.083-0.117-0.132c-0.107-0.143-0.207-0.275-0.332-0.408
					c-1.294-1.627-2.772-3.112-4.391-4.434c-0.547-0.43-0.748-1.178-0.499-1.842l2.085-5.753c0.299-0.813-0.075-1.728-0.855-2.109
					l-1.428-0.706l-4.99-2.449c-0.781-0.39-1.726-0.107-2.182,0.64l-3.307,5.487c-0.348,0.59-1.027,0.881-1.701,0.756
					c-1.76-0.332-3.596-0.506-5.462-0.506c-1.388,0-2.765,0.1-4.102,0.291l-0.714-1.188l-2.939-4.865
					c-0.357-0.606-1.063-0.905-1.727-0.764c-0.141,0.024-0.273,0.074-0.408,0.141l-6.482,3.172
					c-0.763,0.381-1.111,1.277-0.829,2.074l1.526,4.186c0.258,0.705,0,1.518-0.623,1.941c-2.582,1.752-4.863,3.895-6.758,6.344
					c-0.447,0.58-1.203,0.805-1.867,0.547l-6.883-2.498c-0.771-0.274-1.626,0.066-1.992,0.806l-3.204,6.524
					c-0.383,0.772-0.107,1.703,0.622,2.135l6.808,4.107c0.59,0.35,0.898,1.021,0.79,1.703c-0.232,1.453-0.342,2.947-0.342,4.475
					c0,0.821,0.033,1.635,0.1,2.441c0.05,0.631-0.256,1.236-0.797,1.568l-6.517,3.927C170.268,93.707,169.987,94.653,170.368,95.45z
					 M205.561,100.928c-1.928-0.216-3.903-0.779-5.888-1.743c-0.424-0.198-0.871-0.473-1.328-0.78
					c-1.949-1.354-3.952-3.537-4.856-5.396c-6.898-14.237,6.823-28.209,21.054-21.818c0.232,0.108,0.465,0.216,0.699,0.333
					c2.173,1.07,4.839,3.752,5.918,5.919c0.564,1.138,0.996,2.274,1.311,3.396C225.567,92.063,216.535,102.149,205.561,100.928z"/>
			</g>
			<path fill="#FFB27D" d="M199.517,106.27c0,0-0.02-4.818,0.743-6.221c0.761-1.402,2.504-3.154,3.497-2.594
				c0.994,0.561,1.299,5.256,0.994,6.099c-0.306,0.841-2.561,3.995-2.561,3.995L199.517,106.27z"/>
			<path fill="#2C3A64" d="M139.769,261.374c-1.073-0.92-0.43-6.07-0.43-6.07s5.533-4.428,6.293-1.037
				c0.76,3.387,5.256,4.908,7.814,5.324c1.707,0.275,2.273,1.199,2.463,1.783H139.769z"/>
			<path fill="#35488B" d="M139.152,255.542c5.121,0.795,6.994-0.424,6.994-0.424c-0.065-5.045,1.49-16.42,3.621-29.48
				c2.813-17.223,6.625-37.373,9.035-49.799c1.387-7.146,2.309-11.734,2.309-11.734l-4.186-0.082l-20.878-0.413
				c0,0,1.563,23.109,1.135,34.521c-0.103,2.725-0.32,4.785-0.696,5.703C132.928,212.478,139.152,255.542,139.152,255.542z"/>
			<path fill="#2C3A64" d="M137.182,198.13c2.837,5.307,9.941,18.979,12.585,27.508c2.813-17.223,6.625-37.373,9.035-49.799
				c-0.118-4.694-0.68-8.799-1.877-11.816l-20.878-0.413C136.047,163.609,137.61,186.718,137.182,198.13z"/>
			<path fill="#2C3A64" d="M157.355,261.374c-1.074-0.92-0.432-6.07-0.432-6.07s5.533-4.428,6.293-1.037
				c0.762,3.387,5.257,4.908,7.816,5.324c1.705,0.275,2.271,1.199,2.463,1.783H157.355z"/>
			<path fill="#35488B" d="M170.189,163.602c0,0-8.203,75.891-6.578,91.196c0,0-1.754,1.373-6.927,1.055
				c0,0-9.368-43.717-7.385-50.793c1.38-4.92-4.116-39.658-4.116-39.658L170.189,163.602z"/>
			<path fill="#FFB27D" d="M149.995,109.334c0,0,10.428,5.207,15.603,2.832c0,0-2.173-2.813-4.606-3.982
				c0.053-0.928,0.081-1.766,0.098-2.506c0.044-2.467-0.078-3.857-0.078-3.857l-4.497-3.271l-3.054-2.221
				c0.176,1.376,0.203,2.645,0.125,3.809C153.181,106.14,149.995,109.334,149.995,109.334z"/>
			<path fill="#ED975D" d="M153.585,100.137c0,0,2.432,4.85,7.504,5.541c0.044-2.467-0.078-3.857-0.078-3.857l-4.497-3.271
				C154.546,99.29,153.585,100.137,153.585,100.137z"/>
			<path fill="#FFB27D" d="M162.174,101.506c0,0-9.335,3.325-11.317-2.52c-1.98-5.846-4.52-9.353,1.357-11.723
				c5.877-2.369,7.797-0.534,8.932,1.257C162.282,90.312,164.552,100.493,162.174,101.506z"/>
			<path fill="#6BB7BF" d="M135.387,163.602c1.461,3.045,33.813,2.908,35.411,0.764c0.652-0.873,1.396-9.605,1.823-19.76
				c0.235-5.625,0.374-11.686,0.348-17.086c-0.048-8.813-0.542-15.868-1.784-16.407c-6.934-3.007-11.22-4.921-20.277-4.646
				c-2.793,0.088-5.322,1.699-6.539,4.214c-2.177,4.504-5.264,12.483-5.498,21.907C138.504,147.111,133.546,159.766,135.387,163.602
				z"/>
			<path fill="#599DAD" d="M162.501,121.538c0,0,1.054,15.188,10.12,23.068c0.235-5.625,0.374-11.686,0.348-17.086
				C170.26,123.897,166.686,121.29,162.501,121.538z"/>
			<path fill="#6BB7BF" d="M158.042,106.791c0,0,9.949,0.062,13.071,2.962c2.237,2.078,16.616,13.41,17.53,13.259
				c0.912-0.152,10.17-18.632,10.17-18.632s4.564,0.387,5.324,2.361c0,0-4.304,23.073-13.592,28.088c0,0-23.477-4.452-30.443-12.217
				C156.516,118.612,158.042,106.791,158.042,106.791z"/>
			<path fill="#2B478B" d="M161.759,83.96c0,0-0.551,5.576-2.226,7.1c-1.674,1.521-1.233,3.616-1.416,3.921
				c-0.183,0.303-1.917-0.592-2.222-0.078c-0.702,1.18,0.395,2.039,1.089,2.324c0.692,0.285-1.77,5.073-3.576,5.249
				c-3.124,0.306-7.95-8.334-8.358-10.866c-0.533-3.312,1.342-8.477,6.719-8.222C160.218,83.788,161.931,81.956,161.759,83.96z"/>
		</g>
	</g>
</g>
<g>
	<g>
		<path fill="#B655FF" d="M247.663,313.493h-8.305c-0.651,0-1.18-0.526-1.18-1.182v-24.745c0-0.651,0.527,0,1.18,0h8.305
			c0.655,0,1.183-0.652,1.183,0v24.745C248.846,312.964,248.318,313.493,247.663,313.493"/>
		<path fill="#D1E5FD" d="M248.846,287.723h-10.668v-11.17c0-0.652,0.527-1.182,1.182-1.182h8.305c0.653,0,1.181,0.529,1.181,1.182
			V287.723L248.846,287.723z"/>
	</g>
	<g>
		<path fill="#B655FF" d="M263.682,313.493h-8.305c-0.652,0-1.181-0.526-1.181-1.182v-17.855c0-0.65,0.528,0,1.181,0h8.305
			c0.654,0,1.181-0.652,1.181,0v17.855C264.864,312.964,264.336,313.493,263.682,313.493"/>
		<path fill="#D1E5FD" d="M264.864,294.612h-10.667v-11.17c0-0.651,0.527-1.183,1.181-1.183h8.305c0.653,0,1.181,0.53,1.181,1.183
			V294.612L264.864,294.612z"/>
	</g>
	<g>
		<path fill="#B655FF" d="M230.956,313.493h-8.305c-0.652,0-1.18-0.526-1.18-1.182v-10.965c0-0.651,0.527,0,1.18,0h8.305
			c0.653,0,1.182-0.653,1.182,0v10.965C232.138,312.964,231.61,313.493,230.956,313.493"/>
		<path fill="#D1E5FD" d="M232.138,301.502h-10.667v-6.347c0-0.652,0.527-1.183,1.18-1.183h8.305c0.653,0,1.182,0.529,1.182,1.183
			V301.502L232.138,301.502z"/>
	</g>
	<g>
		<path fill="#B655FF" d="M215.282,313.493h-8.305c-0.651,0-1.18-0.526-1.18-1.182v-5.454c0-0.651,0.527,0,1.18,0h8.305
			c0.655,0,1.182-0.652,1.182,0v5.454C216.464,312.964,215.936,313.493,215.282,313.493"/>
		<path fill="#D1E5FD" d="M216.464,307.013h-10.667v-4.279c0-0.652,0.527-1.183,1.182-1.183h8.305c0.653,0,1.18,0.53,1.18,1.183
			V307.013L216.464,307.013z"/>
	</g>
</g>
</svg>
